<svg xmlns="http://www.w3.org/2000/svg" width="185" height="185" viewBox="0 0 185 185">
    <defs>
        <clipPath id="clip-path">
            <path id="Rectangle_3" fill="#fff" stroke="#707070" d="M0 0H148V133H0z" transform="translate(-.372 -.469)"/>
        </clipPath>
        <filter id="Rectangle_5" width="185" height="185" x="0" y="0" filterUnits="userSpaceOnUse">
            <feOffset dy="3"/>
            <feGaussianBlur result="blur" stdDeviation="3"/>
            <feFlood flood-opacity=".161"/>
            <feComposite in2="blur" operator="in"/>
            <feComposite in="SourceGraphic"/>
        </filter>
        <style>
            .cls-5{fill:#77c143}.cls-6{fill:#77c043}
        </style>
    </defs>
    <g id="logo" transform="translate(-89 -203)">
        <g filter="url(#Rectangle_5)" transform="translate(89 203)">
            <rect id="Rectangle_5-2" width="167" height="167" fill="#fff" rx="35" transform="translate(9 6)"/>
        </g>
        <g id="Mask_Group_1" clip-path="url(#clip-path)" transform="translate(113.372 226.469)">
            <g id="Group_2" transform="translate(0 11.18)">
                <path id="Path_1" fill="#f1e901" d="M173.365 1152.922c1.69-1.423 2.935-2.672 4.42-3.927l19.869-16.8a12.489 12.489 0 0 1 1.412-1.056 3.953 3.953 0 0 1 4.885.4 4.18 4.18 0 0 1 .969 4.875 7.721 7.721 0 0 1-1.8 2q-13.335 11.305-26.661 22.621c-.234.2-.447.422-.71.673l15.084 12.874q6.357 5.428 12.707 10.863a3.992 3.992 0 0 1 1.351 4.99 3.764 3.764 0 0 1-5.4 2.2 26.156 26.156 0 0 1-3.8-2.958q-10.779-9.222-21.553-18.45c-.174-.149-.365-.278-.568-.431-.361.4-.187.608-.188 1.006-.016 5.73 0 11.46-.021 17.19-.012 2.719-1.282 3.934-4 3.938-2.8 0-4.511-1.233-4.512-4.149l-.022-51.336a1.579 1.579 0 0 1 .9-1.569c1.949-1.17 4.342-2.412 6.232-3.676.645-.431.945-.336 1.167.385a7.4 7.4 0 0 1 .25 2.211v16.719zm7.9-31.727a41.727 41.727 0 1 0 41.727 41.727 41.727 41.727 0 0 0-41.728-41.722z" transform="translate(-111.74 -1106.005)"/>
                <path id="Path_2" d="M100.282 1168.78c.373 9.3 3.035 17.785 9.057 25.023a42.442 42.442 0 0 0 17.442 12.13 73.325 73.325 0 0 0 17.627 4.494 32.265 32.265 0 0 0 9.048-.436 46.922 46.922 0 0 0 20-7.537c8.23-5.7 13.308-13.6 15.921-23.162a81.713 81.713 0 0 0 2.033-12.9c1.137-10.544-2.46-19.518-8.674-27.636a44.765 44.765 0 0 0-14.473-11.924c.124-1.229 1.171-1.652 1.986-2.278a55.647 55.647 0 0 1 11.422 6.068 36.947 36.947 0 0 1 14.307 18.981 40.117 40.117 0 0 1 1.762 9.783c.06.865.283 1.719.43 2.579v9.712a64.92 64.92 0 0 1-1.079 8.488A47.314 47.314 0 0 1 186.74 1201a48.205 48.205 0 0 1-12.9 10.112 55.966 55.966 0 0 1-19.686 6.854c-1.51.224-3.045.087-4.553.332h-8.256c-2.052-.318-4.126-.532-6.151-.973-12.039-2.621-22.386-8.218-30.468-17.654a47.692 47.692 0 0 1-11.113-23.47 50.106 50.106 0 0 1-.414-12.288 46.154 46.154 0 0 1 5.02-17.993 17.409 17.409 0 0 1 5.294-6.678 4.081 4.081 0 0 1 1.8-.842c-.4 1.554-.678 3.042-1.163 4.46a78.238 78.238 0 0 0-3.615 15.872 25.212 25.212 0 0 1-.407 4.179c.189 1.953-.1 3.917.154 5.869z" class="cls-5" transform="translate(-76.514 -1108.55)"/>
                <path id="Path_3" d="M361 1112.295l-1.986 2.278a70.775 70.775 0 0 0-13.38-5.219c-.277-.075-.706-.1-.663-.561.054-.577.529-.425.843-.384a68.713 68.713 0 0 1 15.186 3.886z" class="cls-5" transform="translate(-267.267 -1096.288)"/>
                <path id="Path_4" d="M158.76 1073.948a66.784 66.784 0 0 0-18.76 13.563 24.934 24.934 0 0 1-.149-5.537c.392-4.971 1.929-9.473 5.593-13.052a18.411 18.411 0 0 1 7.164-4.156 108.73 108.73 0 0 1 25.357-5.55c1.69-.148 3.385-.233 5.078-.347.8-.245 1.649.105 2.443-.207h1.943a55.512 55.512 0 0 1-4.9 14.264 26.593 26.593 0 0 1-7.65 10.015c-2.563 1.951-5.408 3.531-8.1 5.312a23.935 23.935 0 0 1-18.2 3.47 48.437 48.437 0 0 1-7.059-1.791 91.5 91.5 0 0 1 17.493-15.741 1.962 1.962 0 0 1 .916-.7 4.027 4.027 0 0 1-1.169.457z" class="cls-6" transform="translate(-111.908 -1058.663)"/>
                <path id="Path_5" d="M25.106 1108.531a49.107 49.107 0 0 1 17.452 2.229 15.415 15.415 0 0 1 7.86 5.2 10.187 10.187 0 0 1 1.312 9.333 51.014 51.014 0 0 0-9.332-7.612c.918.847 1.85 1.681 2.751 2.545a30.27 30.27 0 0 1 5.1 5.977c.748 1.227.7 1.345-.679 1.487q-13.738 1.423-20.933-10.373a31.666 31.666 0 0 1-3.261-7.795c-.055-.192-.064-.4-.274-.508z" class="cls-6" transform="translate(-25.106 -1096.39)"/>
            </g>
        </g>
    </g>
</svg>
